<svg xmlns="http://www.w3.org/2000/svg" width="50" height="50" viewBox="0 0 512 512" fill="#e50914" style="margin-right:6px"><path d="m24.935 50.869 2.452-.007q4.094-.006 8.187-.002l5.908-.01q8.138-.011 16.277-.01c5.846-.002 11.692-.01 17.538-.016q20.184-.02 40.368-.025l21.946-.01a164464 164464 0 0 1 85.634-.03c23.1-.003 46.202-.02 69.303-.042q36.633-.038 73.264-.04 19.97.001 39.94-.025 17.004-.023 34.007-.012c5.785.004 11.57.003 17.356-.011q7.942-.019 15.885 0 2.874.004 5.75-.01a885 885 0 0 1 7.812.01c.744-.009 1.49-.016 2.256-.024 6.353.063 11.468 1.73 16.932 5.082 7.286 7.489 6.82 15.865 6.758 25.647a1907 1907 0 0 1 .015 17.603c-.01 4.641.005 9.282.016 13.923.018 9.087.014 18.174.002 27.26a12222 12222 0 0 0-.004 25.342l.004 6.407c.011 20.024-.002 40.048-.023 60.072q-.025 25.77.003 51.541a35451 35451 0 0 1 .014 66.241l-.002 3.173q-.003 11.064.012 22.128a7454 7454 0 0 1-.013 26.969c-.01 4.586-.015 9.172-.001 13.758q.017 6.3-.016 12.598a488 488 0 0 0 .007 4.555c.047 7.916-.017 14.318-4.522 21.096-2.219 2.059-2.219 2.059-4.5 3.437l-2.281 1.434c-4.614 2.348-9.06 2.272-14.154 2.26l-2.452.007q-4.094.006-8.187.002l-5.908.01q-8.138.011-16.277.01-8.769.005-17.538.016-20.184.02-40.368.025l-21.946.01a164464 164464 0 0 1-83.475.03h-2.159c-23.1.003-46.202.02-69.303.042q-36.633.038-73.264.04-19.97-.001-39.94.025-17.004.023-34.007.012-8.677-.008-17.356.011-7.943.019-15.885 0-2.874-.004-5.75.01c-2.604.01-5.207.003-7.812-.01l-2.256.024c-6.353-.063-11.468-1.73-16.932-5.083-7.286-7.488-6.82-15.864-6.758-25.646a1907 1907 0 0 1-.015-17.603c.01-4.641-.005-9.282-.016-13.923-.018-9.087-.014-18.174-.002-27.26q.013-11.079.006-22.157l-.002-3.185-.004-6.407c-.011-20.024.002-40.048.023-60.072q.025-25.77-.003-51.541a35451 35451 0 0 1-.014-66.241l.002-3.173q.003-11.064-.012-22.128-.017-13.485.013-26.969c.01-4.586.015-9.172.001-13.758q-.017-6.3.016-12.598a488 488 0 0 0-.007-4.555C-.57 71.18-.505 64.778 4 58c2.219-2.059 2.219-2.059 4.5-3.438l2.281-1.433c4.614-2.348 9.06-2.272 14.154-2.26M41 93v185h430V93zm10 227v76h8v-33h36v-7H59v-28h40v-8zm61 0c-.102 7.346-.172 14.693-.22 22.04q-.03 3.742-.082 7.486c-.049 3.602-.071 7.204-.089 10.806l-.062 3.341c-.003 9.393 1.696 17.608 8.078 24.764 7.204 6.498 15.818 8.667 25.375 8.563 9.614-.682 16.58-3.153 23.25-10.188 6.286-8.128 7.328-16.356 7.14-26.382l-.017-3.522c-.022-3.678-.072-7.355-.123-11.033q-.03-3.762-.055-7.523-.067-9.177-.195-18.352h-7l-.025 1.679q-.131 8.713-.292 17.425-.057 3.244-.105 6.488a2091 2091 0 0 1-.164 9.369l-.035 2.893c-.177 8.177-.633 16.242-5.379 23.146v2c-8.805 4.77-17.511 6.846-27.473 4.39-2.09-.765-2.09-.765-5.527-2.39l-2.375-.875c-2.36-1.633-2.749-3.433-3.625-6.125l-1.063-2.438c-2.3-6.29-2.143-12.817-2.253-19.43l-.063-3.135q-.097-4.935-.184-9.872l-.13-6.71q-.16-8.208-.307-16.415zm86 0v76h42v-7h-34v-69zm57 0v76h42v-7h-34v-69zm53 0v76h19v-30h33v30h18v-76h-18v32h-33v-32zm87 0v15l3.361.028c4.146.04 8.29.106 12.435.18q2.682.042 5.365.063c2.582.022 5.163.068 7.745.12l2.394.003c6.748.175 12.128 2.103 17.012 6.856 4.58 7.464 5.957 14.553 4.184 23.21-1.845 6.347-4.715 9.918-10.496 13.29-5.334 2.223-10.611 2.501-16.313 2.812L413 382v-29h-18v43l19.375.187 6.052.083c12.583.191 12.583.191 24.573-3.27.951-.425 1.903-.85 2.883-1.29 8.52-5.076 15.109-11.46 18.433-20.976 2.954-11.815 1.936-22.722-3.855-33.418-5.576-8.84-14.5-13.993-24.59-16.383-4.735-1.019-9.234-1.192-14.062-1.128l-2.518.008c-2.618.011-5.236.036-7.854.062q-2.685.016-5.369.027-6.534.035-13.068.098"/><path d="M287.441 139.543c5.397 4.343 8.881 9.159 9.97 16.059.455 8.303-2.26 14.82-7.724 21.023L288 178l1.61 1.102c6.36 4.526 10.554 9.093 12.39 16.898.855 7.917-.741 14.644-5.187 21.25-10.186 9.96-21.875 11.246-35.603 11.172-10.87-.28-21.346-2.28-29.21-10.422-5.1-6.622-6.886-12.674-6-21 1.92-8.396 6.393-12.796 13-18l2-2-2.75-2c-4.555-3.875-6.847-7.946-7.633-13.902-.246-6.498.284-11.89 4.383-17.098 12.476-13.181 37.628-13.819 52.441-4.457M254 153c-2.44 3.803-3.211 5.781-2.437 10.25 2.106 4.03 4.183 5.332 8.437 6.75 5.675.372 9.035.074 14-3 2.47-2.47 2.769-3.53 3-7-.7-3.745-.7-3.745-3-7-6.757-3.58-13.345-3.921-20 0m-2 38c-2.394 2.873-2.96 4.727-3.5 8.438.497 3.543 1.205 5.705 3.691 8.332 5.082 3.457 11.775 3.679 17.684 2.73 4.72-1.33 6.657-3.28 9.125-7.5.698-4.34.31-6.393-1.687-10.312-3.062-3.558-5.574-4.508-10.215-4.989-8.018-.122-8.018-.122-15.098 3.301m-47.004-47.043c10.287 10.488 12.27 24.893 12.25 38.938-.183 12.45-2.564 24.69-11.133 34.199-9.7 8.996-20.326 11.389-33.3 11.144-10.777-.673-18.911-3.71-26.813-11.238-7.186-8.684-10.324-18.834-11-30l-.16-2.598c-.44-14.188 1.97-28.98 11.847-39.714 15.71-14.535 42.06-14.363 58.31-.731m-40.246 12.98c-6.573 11.503-6.383 27.234-3.437 39.875 1.361 4.993 2.994 9.046 7.375 12 5.255 1.884 9.289 1.888 14.562.063 5.052-3.444 6.96-7.659 8.344-13.505.778-4.543.734-9.085.719-13.683l.048-2.935c.005-7.28-.314-15.824-4.944-21.793-3.346-3.304-6.736-4.881-11.433-5.127-4.55.385-7.828 2.173-11.234 5.106m216.905-11.415c9.26 9.686 11.507 23.672 11.34 36.602C392.56 194.821 390.2 208.551 381 218c-11.15 8.656-23.044 11.268-37 10-11.807-2.248-19.481-7.168-26.531-16.781-5.98-9.032-6.845-19.531-6.781-30.094l.012-2.918c.198-12.482 2.924-24.087 11.468-33.539 16.741-15.242 43.297-14.037 59.488.855M342 155c-6.576 7.441-6.364 16.908-6.375 26.313l-.074 3.224c-.027 7.418 1.083 13.79 4.449 20.463 3.586 3.586 6.293 5.149 11.313 5.25 5.322-.077 7.91-1.63 11.812-5.187 6.571-10.733 6.214-25.661 4.063-37.75-1.215-4.967-2.819-8.866-6.375-12.625-6.266-3.76-12.66-3.435-18.813.312M77 135h41v92H94v-72H77zm325 44 12.375-.25 3.837-.11c7.211-.07 13.511.548 19.788 4.36 3.664 3.92 4.815 8.74 5 14-.68 4.81-2.003 9.115-5 13-5.376 3.86-9.725 4.123-16.25 4.063l-3.828-.028L415 214v13h-13zm13 11v14c6.731.249 6.731.249 13-2 2.356-1.939 2.356-1.939 2.375-5.437 0-3.53 0-3.53-2.04-5.274-2.899-1.6-4.795-1.594-8.085-1.476z"/></svg>