<svg xmlns="http://www.w3.org/2000/svg" width="50" height="50" viewBox="0 0 512 512" fill="#e50914" style="margin-right:6px"><path d="M25.058 406.743c1.216-.006 1.216-.006 2.456-.01 2.727-.01 5.453-.005 8.18 0l5.911-.014c5.423-.012 10.846-.012 16.27-.01 5.845 0 11.69-.01 17.536-.02 11.455-.017 22.91-.022 34.366-.023a48183 48183 0 0 0 35.966-.017l2.018-.001q28.102-.02 56.206-.02h2.14l10.743.001h6.469q33.564.002 67.129-.04 37.702-.048 75.405-.047 19.965.004 39.93-.026 16.998-.029 33.996-.009c5.783.007 11.566.007 17.35-.01q7.938-.024 15.878.004 2.874.005 5.748-.012c2.604-.014 5.206-.003 7.81.013l2.255-.03c6.44.087 11.574 2.244 16.422 6.493l1.633 1.973 1.68 1.964c4.48 6.502 4.12 13.47 3.445 21.098-1.68 6.66-6.464 11.185-12 15-4.313 2.178-8.324 2.283-13.058 2.257l-2.456.01c-2.727.01-5.453.005-8.18 0l-5.911.014c-5.423.012-10.846.012-16.27.01-5.845 0-11.69.01-17.536.02q-17.182.024-34.366.023a48183 48183 0 0 0-35.966.017l-2.018.001q-28.102.02-56.206.02h-2.14l-10.743-.001h-6.469q-33.564-.002-67.129.04-37.703.048-75.405.047-19.965-.004-39.93.026-16.998.028-33.996.009c-5.783-.007-11.566-.007-17.35.01q-7.938.024-15.878-.004-2.874-.005-5.748.012c-2.604.014-5.206.003-7.81-.013l-2.255.03c-6.44-.087-11.574-2.244-16.422-6.493l-1.633-1.972-1.68-1.965C-1.035 438.596-.675 431.628 0 424c1.68-6.66 6.464-11.185 12-15 4.313-2.178 8.324-2.283 13.058-2.257m0-352c1.216-.006 1.216-.006 2.456-.01 2.727-.01 5.453-.005 8.18 0l5.911-.014c5.423-.012 10.846-.012 16.27-.01 5.845 0 11.69-.01 17.536-.02 11.455-.017 22.91-.022 34.366-.023a48183 48183 0 0 0 35.966-.017l2.018-.001q28.102-.02 56.206-.02h2.14l17.212.002q33.564 0 67.129-.042 37.702-.047 75.405-.046 19.965.004 39.93-.026 16.998-.029 33.996-.009c5.783.007 11.566.007 17.35-.01q7.938-.023 15.878.004 2.874.005 5.748-.012c2.604-.014 5.206-.003 7.81.013l2.255-.03c6.44.087 11.574 2.244 16.422 6.493l1.633 1.973 1.68 1.964c4.48 6.502 4.12 13.47 3.445 21.098-1.68 6.66-6.464 11.185-12 15-4.313 2.178-8.324 2.283-13.058 2.257l-2.456.01c-2.727.01-5.453.005-8.18 0l-5.911.014c-5.423.012-10.846.012-16.27.01-5.845 0-11.69.01-17.536.02q-17.182.023-34.366.023a48183 48183 0 0 0-35.966.017l-2.018.001q-28.102.02-56.206.02h-2.14l-10.743-.001h-6.469q-33.564-.002-67.129.04-37.703.048-75.405.047-19.965-.004-39.93.026-16.998.028-33.996.009c-5.783-.007-11.566-.007-17.35.01q-7.938.024-15.878-.004-2.874-.005-5.748.012c-2.604.014-5.206.003-7.81-.013l-2.255.03c-6.44-.087-11.574-2.244-16.422-6.493l-1.633-1.972-1.68-1.965C-1.035 86.596-.675 79.628 0 72c1.68-6.66 6.464-11.185 12-15 4.313-2.178 8.324-2.283 13.058-2.257m220.934 96.691 3.357-.02q3.492-.01 6.984.01c3.526.013 7.05-.02 10.577-.059 15.508-.054 27.67.83 39.871 11.408 9.392 9.425 13.634 20.123 13.761 33.358l-.024 3.795q.008 2.044.02 4.089c.019 3.67.012 7.339 0 11.008-.01 3.86-.001 7.72.005 11.58q.01 9.719-.022 19.437a3889 3889 0 0 0 .008 22.397q.026 9.656.01 19.31c-.006 3.834-.007 7.666.006 11.499q.017 5.408-.02 10.815c-.007 1.936.005 3.872.017 5.808-.123 12.859-4.088 22.454-12.542 32.131-7.267 6.902-16.949 12.064-27.053 12.177l-3.046.039-3.28.022-3.401.025q-3.567.02-7.134.032-3.63.017-7.26.062c-3.505.043-7.01.059-10.517.069l-3.237.053c-12.335-.035-21.84-4.414-31.072-12.479-7.16-7.539-12.096-17.278-12.154-27.708l-.026-3.53-.013-3.861-.025-4.077c-.026-4.46-.041-8.922-.055-13.383l-.017-4.62q-.033-9.618-.051-19.237a6159 6159 0 0 0-.107-27.49q-.056-9.684-.063-19.369a1532 1532 0 0 0-.048-11.545q-.044-5.444-.025-10.887c0-1.945-.024-3.89-.05-5.835.092-13.095 4.295-24.152 13.634-33.458 9.782-8.45 20.208-11.627 32.992-11.566M248 200v32h24v-32zm0 80v32h24v-32zm141.992-128.566 3.357-.02q3.492-.01 6.984.01c3.526.013 7.05-.02 10.577-.059 15.508-.054 27.67.83 39.871 11.408 9.392 9.425 13.634 20.123 13.761 33.358l-.024 3.795q.008 2.044.02 4.089c.019 3.67.012 7.339 0 11.008-.01 3.86-.001 7.72.005 11.58q.01 9.719-.022 19.437a3889 3889 0 0 0 .008 22.397q.026 9.656.01 19.31c-.006 3.834-.007 7.666.006 11.499q.017 5.408-.02 10.815c-.007 1.936.005 3.872.017 5.808-.123 12.859-4.088 22.454-12.542 32.131-7.267 6.902-16.949 12.064-27.053 12.177l-3.046.039-3.28.022-3.401.025q-3.567.02-7.134.032-3.63.017-7.26.062c-3.505.043-7.01.059-10.517.069l-3.237.053c-12.335-.035-21.84-4.414-31.072-12.479-7.16-7.539-12.096-17.278-12.154-27.708l-.026-3.53-.013-3.861-.025-4.077c-.026-4.46-.041-8.922-.055-13.383l-.017-4.62q-.033-9.618-.051-19.237a6159 6159 0 0 0-.107-27.49q-.056-9.684-.063-19.369a1532 1532 0 0 0-.048-11.545q-.044-5.444-.025-10.887c0-1.945-.024-3.89-.05-5.835.092-13.095 4.295-24.152 13.634-33.458 9.782-8.45 20.208-11.627 32.992-11.566M392 200v112h24V200zM91.438 153.5c5.907 3.57 10.384 8.979 12.562 15.5.24 2.993.24 2.993.227 6.35v3.822l-.032 4.098-.008 4.216c-.008 3.687-.028 7.374-.05 11.062-.02 3.767-.03 7.534-.04 11.302-.02 7.383-.056 14.767-.097 22.15h24l-.063-5.656q-.096-9.285-.144-18.572c-.021-3.75-.05-7.501-.095-11.252a1181 1181 0 0 1-.078-10.874 397 397 0 0 0-.043-4.133c-.138-9.128.168-15.658 6.388-22.755l1.972-1.633 1.965-1.68c6.502-4.48 13.47-4.12 21.098-3.445 6.66 1.68 11.185 6.464 15 12 2.035 4.14 2.255 7.564 2.267 12.153l.014 2.15c.013 2.37.011 4.74.01 7.11q.008 2.553.02 5.106c.018 4.62.022 9.24.024 13.86q.001 4.332.01 8.664.028 15.117.026 30.236c-.002 9.388.02 18.775.051 28.163q.038 12.099.036 24.197c0 4.815.005 9.63.026 14.444q.029 6.795.005 13.59-.003 2.488.015 4.977c.116 17.078.116 17.078-6.469 24.592l-1.972 1.633-1.965 1.68c-6.502 4.48-13.47 4.12-21.098 3.445-6.66-1.68-11.185-6.464-15-12-1.885-3.913-2.244-7.026-2.227-11.35v-3.822l.032-4.098.008-4.216c.008-3.687.028-7.374.05-11.062.02-3.767.03-7.534.04-11.302.02-7.383.055-14.767.097-22.15l-2.034.027c-7.008.089-14.016.149-21.025.193q-3.92.03-7.839.082c-3.763.048-7.526.071-11.29.089l-3.52.062c-7.96.002-13.38-1.024-19.534-6.418l-1.633-1.973-1.68-1.964c-3.625-5.262-3.742-9.984-3.736-16.168l-.02-2.741a1574 1574 0 0 1-.025-8.959l-.02-6.243q-.017-6.543-.015-13.086c0-5.578-.027-11.156-.061-16.735-.022-4.299-.026-8.598-.025-12.897a965 965 0 0 0-.027-6.168c-.02-2.881-.014-5.762-.002-8.643l-.034-2.553c.072-6.8 1.979-12.005 6.485-17.147l1.972-1.633 1.965-1.68c7.065-4.867 17.692-5.421 25.536-1.945"/></svg>