<svg xmlns="http://www.w3.org/2000/svg" width="50" height="50" viewBox="0 0 512 512" fill="#e50914" style="margin-right:6px"><path d="M89.773 137.39q2.816.45 5.63.896l2.95.477c28.197 4.54 56.356 7.805 84.835 9.924l2.467.185c23.077 1.704 46.146 2.337 69.283 2.315l3.667-.001c57.32-.077 114.582-4.722 171.041-14.83 10.594-1.6 10.594-1.6 14.916 1.457 2.948 4.485 2.584 8.918 2.578 14.087l.01 2.792q.01 4.65.011 9.3l.015 6.651q.019 9.05.024 18.1l.012 11.301q.019 15.645.026 31.292v2.023l.003 8.134q.007 16.347.045 32.695.035 16.783.037 33.568a7054 7054 0 0 0 .025 18.847q.023 8.863.01 17.727-.002 3.255.013 6.508c.013 2.96.007 5.92-.004 8.88l.025 2.606c-.041 4.955-.625 8.389-3.392 12.676-6.13 3.065-15.267.697-21.773-.39q-2.816-.45-5.63-.896l-2.95-.477c-28.197-4.54-56.356-7.805-84.834-9.925l-2.468-.184c-23.098-1.705-46.188-2.337-69.345-2.315l-3.673.001c-56.047.075-112.237 4.528-167.474 14.23-10.996 1.907-10.996 1.907-15.853.956-2.576-1.885-3.597-3.193-5-6-.103-2.962-.143-5.9-.14-8.863l-.01-2.815q-.01-4.7-.011-9.4l-.015-6.715q-.019-9.142-.024-18.285l-.012-11.415a38117 38117 0 0 1-.026-31.595v-4.091l-.002-4.11v-2.058q-.009-16.514-.046-33.027-.035-16.95-.037-33.897 0-9.518-.025-19.037-.023-8.952-.01-17.904.002-3.288-.013-6.577c-.013-2.99-.007-5.978.004-8.967l-.025-2.64c.039-4.683.33-7.81 3.392-11.604 6.13-3.065 15.267-.697 21.773.39M82 154v204l51-7c40.632-4.409 81.057-7.228 121.938-7.187l3.512.001c57.743.081 114.448 6.029 171.55 14.186V154l-51 7c-40.617 4.527-81.058 7.228-121.937 7.188l-3.513-.002C195.79 168.105 139.12 162.16 82 154"/><path d="M285.5 197.375c4.53.81 5.727 1.97 8.5 5.625.734 3.225.722 6.379.707 9.676l.046 2.803c.043 2.945.052 5.889.06 8.833q.034 3.002.076 6.002c.063 4.896.095 9.79.111 14.686 8.564-7.957 17.038-15.966 25.259-24.279 3.495-3.519 7.071-6.86 10.862-10.06 3.155-2.789 6.062-5.824 8.996-8.84 2.562-2.478 3.587-2.787 7.195-3.196 3.688.375 3.688.375 6.625 2.5C356 204 356 204 356.563 206.938c-1.308 7.123-6.282 10.738-11.507 15.296-4.405 3.912-8.491 8.157-12.613 12.361-3.98 4.034-8.094 7.771-12.442 11.405 5.37 8.557 10.934 16.978 16.543 25.38q2.184 3.272 4.363 6.548l2.844 4.263 1.383 2.075a371 371 0 0 0 9.65 13.752c1.959 3.19 2.063 5.388 1.217 8.982-2.592 3.692-4.041 4.829-8.5 5.625-5.862-1.047-8.418-5.382-11.672-10.047a1069 1069 0 0 1-3.578-5.328l-3.957-5.867-2.096-3.12c-3.476-5.162-6.98-10.304-10.483-15.447l-5.523-8.12-1.868-2.75L307 260a788 788 0 0 0-3.75 2.75l-2.11 1.547L299 266l-2.239 1.656c-2.613 3.477-2.268 6.917-2.195 11.09l-.029 5.225q.014 4.104.048 8.209c.014 2.647-.001 5.294-.019 7.941l.05 2.469c-.037 4.265-.247 5.93-2.933 9.426C289 314 289 314 285.5 314.625c-4.548-.812-5.736-1.934-8.5-5.625-.736-3.405-.683-6.746-.647-10.219l-.027-3.11a884 884 0 0 1 .01-10.171 5736 5736 0 0 0-.015-7.072q-.009-7.41.027-14.819c.029-6.332.012-12.663-.018-18.995-.018-4.868-.012-9.735 0-14.603q.006-3.503-.011-7.004a788 788 0 0 1 .034-9.788l-.03-2.926c.072-4.564.192-6.646 2.999-10.393C282 198 282 198 285.5 197.375M219 198c2.938 2.063 2.938 2.063 5 5 .926 5.87-.817 8.968-4.062 13.607l-1.75 2.393-1.793 2.533A686 686 0 0 1 211 229l-1.486 2.035a1263 1263 0 0 1-5.323 7.227C198.215 246.337 192.64 254.69 187 263l32 1c-.197-8.99-.197-8.99-.45-17.98-.02-1.686-.02-1.686-.038-3.407l-.08-3.475c.746-4.12 2.327-5.575 5.568-8.138 3.5-.625 3.5-.625 7 0 3.241 2.563 4.822 4.018 5.568 8.138l-.08 3.475-.049 3.78-.126 3.92-.069 3.978A711 711 0 0 1 236 264l1.956-.063c2.931-.084 5.862-.136 8.794-.187l3.078-.102c7.522-.099 7.522-.099 10.817 2.184 1.775 2.84 2.287 4.813 2.355 8.168-1.652 3.825-3.174 5.474-7 7-2.29.227-2.29.227-4.766.195l-2.695-.02-2.789-.05-2.836-.027q-3.458-.036-6.914-.098l.048 2.4c.062 3.595.101 7.191.14 10.788l.076 3.775.029 3.642.048 3.349c-.384 3.435-1.293 5.289-3.341 8.046-3.139 1.57-5.539 1.352-9 1-3.261-2.549-4.821-4.013-5.568-8.138l.08-3.475.049-3.78.126-3.92.069-3.978q.088-4.856.244-9.709l-1.94.02c-6.668.067-13.335.112-20.002.145q-3.732.022-7.464.061c-3.577.037-7.154.054-10.73.067l-3.37.047h-3.153l-2.766.02c-3.137-.439-5.018-1.52-7.575-3.36-1.63-3.261-1.571-6.479-1-10 1.39-2.93 3.268-5.382 5.25-7.937q1.666-2.248 3.328-4.497l1.729-2.296c2.639-3.538 5.162-7.154 7.693-10.77q1.5-2.127 3.004-4.254 2.984-4.228 5.96-8.46Q192.47 223.382 197 217l1.76-2.481q2.676-3.764 5.365-7.519l1.687-2.377 1.57-2.185 1.388-1.942c2.778-3.378 6.145-2.911 10.23-2.496"/></svg>