<svg xmlns="http://www.w3.org/2000/svg" width="50" height="50" viewBox="0 0 512 512" fill="#e50914" style="margin-right:6px"><path d="m14.04 98.866 2.561-.007q4.294-.009 8.588-.006l6.181-.011q8.53-.014 17.06-.017 9.186-.007 18.37-.022 21.15-.027 42.3-.037l20.893-.015a162877 162877 0 0 1 75.977-.042h2.25l11.28-.004h2.26q36.305-.014 72.608-.065a63340 63340 0 0 1 87.238-.059c11.133-.002 22.266-.018 33.398-.038q16.776-.03 33.552-.017c6.063.005 12.125.003 18.187-.016q8.318-.026 16.634-.001 3.017.004 6.033-.014c2.724-.015 5.447-.006 8.172.01l2.389-.031c3.723.047 5.83.398 8.993 2.432 3.029 3.115 3.162 4.808 3.17 9.043l.014 3.19v3.533l.01 3.732q.014 5.144.017 10.287.007 5.541.022 11.082c.02 8.926.03 17.852.039 26.779l.015 12.602a59822 59822 0 0 1 .046 55.48c.008 14.598.033 29.196.066 43.794q.049 22.467.054 44.935c.002 8.413.011 16.827.036 25.24q.034 10.746.02 21.492c-.004 3.656-.002 7.312.017 10.969.021 3.96.011 7.922-.002 11.883l.033 3.513c-.063 7.773-.063 7.773-2.426 11.73-3.865 3.34-7.243 2.953-12.136 2.944l-2.56.007q-4.294.009-8.588.006l-6.181.011q-8.53.014-17.06.017-9.186.007-18.37.022-21.15.027-42.3.037l-20.893.015a162877 162877 0 0 1-75.977.042h-2.25l-11.28.004h-2.26q-36.305.014-72.608.065a63340 63340 0 0 1-87.238.059c-11.133.002-22.266.018-33.398.038q-16.776.03-33.552.017c-6.063-.005-12.125-.003-18.187.016q-8.318.026-16.634.001-3.016-.004-6.033.014c-2.724.015-5.447.006-8.172-.01l-2.389.031c-3.723-.047-5.83-.398-8.993-2.432-3.029-3.115-3.162-4.808-3.17-9.043l-.014-3.19v-3.533l-.01-3.732q-.014-5.144-.017-10.287-.007-5.541-.022-11.082c-.02-8.926-.03-17.852-.039-26.779l-.015-12.602a59822 59822 0 0 1-.046-55.48c-.008-14.598-.033-29.196-.066-43.794q-.049-22.467-.054-44.935c-.002-8.413-.011-16.827-.036-25.24q-.034-10.746-.02-21.492c.004-3.656.002-7.312-.017-10.969-.021-3.96-.011-7.922.002-11.883l-.033-3.513c.063-7.773.063-7.773 2.426-11.73 3.865-3.34 7.243-2.953 12.136-2.944M21 120v272h470V120z"/><path d="M313.516 207.406c11.022 7.949 16.333 19.528 18.734 32.594 2.65 20.124 1.52 41.404-10.91 58.25-5.793 6.354-14.084 10.369-22.625 10.988-10.536.207-20.45-1.075-28.715-8.238-11.725-13.406-15.684-29.816-15.184-47.324.994-14.478 2.903-28.562 13.184-39.676l1.703-1.898c11.15-11.103 30.332-12.232 43.813-4.696M286 229c-4.495 8.67-4.183 17.278-4.187 26.813l-.038 3.736c-.015 9.482.164 17.685 6.225 25.451 1.984 2.399 1.984 2.399 5.813 2.438 3.208-.117 4.183-.436 7-2.25 5.951-8.673 5.653-19.1 5.562-29.25l.035-3.932c-.026-8.716-.474-17.29-5.66-24.631-2.602-2.656-2.602-2.656-6.25-3-4.112.734-5.675 1.565-8.5 4.625m129.004 10.469c8.206 7.515 11.382 17.557 12.215 28.37.361 11.455-1.572 22.323-9.219 31.161-5.71 6.052-10.975 9.582-19.336 10.277-10.29.275-16.713-1.01-24.316-7.972Q373.164 300.162 372 299v38h-25V236h24l1 8 1.793-1.68 2.394-2.195 2.356-2.18c10.171-8.053 26.45-5.814 36.46 1.524m-41.254 19.344c-3.415 4.268-4.165 8.757-4 14.171.752 6.063 3.7 10.148 8.25 14.016 4.348 1.45 8.456 1.517 13 1 5.133-2.613 8.18-5.54 10-11 .713-6.877.768-12.728-3.45-18.441-3.528-3.547-7.275-4.425-12.113-4.934-4.826.527-7.936 2.166-11.687 5.188M228.75 208.75c7.68 5.509 11.91 11.517 13.754 20.781 1.339 9.81-.652 18.964-6.512 26.996C228.65 265.641 220.831 274.3 213 283l29 1v23h-79c2.025-4.05 4.483-7.075 7.438-10.437l3.273-3.774 1.67-1.92a847 847 0 0 0 7.182-8.432l2.714-3.214 1.355-1.605q2.09-2.47 4.184-4.934C196.62 265.85 202.386 258.99 208 252l1.82-2.25c3.885-4.954 6.232-8.811 6.118-15.312-1.164-4.265-2.36-5.85-5.938-8.438-4.059-1.353-7.194-1.213-11.312-.125-5.027 3.975-5.48 10.088-6.688 16.125h-25c0-11.995 1.16-19.712 9.438-28.625L179 211l2.063-2.062c13.746-9.067 33.838-8.75 47.687-.188M85 205h79c0 6.75 0 6.75-1.458 9.826l-.98 2.109-1.085 2.249-1.13 2.412c-1.23 2.619-2.476 5.23-3.722 7.841q-1.293 2.742-2.581 5.485a4793 4793 0 0 1-4.004 8.499 1925 1925 0 0 0-9.028 19.4l-1.207 2.627a10751 10751 0 0 0-4.592 10.016A901 901 0 0 1 119 307H90c.735-3.677 1.18-5.731 2.775-8.875l1.107-2.203 1.204-2.352 1.252-2.482q1.325-2.626 2.658-5.25c2.304-4.533 4.589-9.077 6.875-13.62l1.36-2.698c4.318-8.58 8.478-17.231 12.578-25.918 2.332-4.899 4.765-9.75 7.191-14.602H85z"/></svg>