<svg xmlns="http://www.w3.org/2000/svg" width="50" height="50" viewBox="0 0 512 512" fill="#e50914" style="margin-right:6px"><path d="m147.672 110.469 3.882-.012q4.039-.008 8.078.022c3.44.022 6.877.01 10.315-.015 3.304-.018 6.608-.005 9.912.005l3.722-.025c6.41.07 10.6.137 15.419 4.556 4.605 5.227 5.358 8.307 5.277 15.172-.425 4.336-1.599 6.374-4.277 9.828-12.758 10.1-26.857 5-44 5v117h200V145h-34c-6.695-2.87-11.217-5.171-14-12-.68-5.24-.657-9.661 1.688-14.437 6.68-7.402 6.68-7.402 11.725-7.71l3.071-.03 3.482-.039 3.784-.022 3.888-.025q4.086-.022 8.171-.032c3.465-.011 6.93-.045 10.395-.085 3.328-.033 6.656-.037 9.983-.046l3.736-.053c13.208.033 22.303 4.688 32.077 13.479 8.961 9.88 12.108 21.364 14.857 34.15l.775 3.518q1.037 4.724 2.057 9.453.64 2.966 1.286 5.93a9153 9153 0 0 1 4.49 20.762c1.38 6.417 2.78 12.83 4.19 19.24a3795 3795 0 0 1 3.607 16.618q1.062 4.944 2.15 9.882c.81 3.676 1.597 7.356 2.378 11.038l.729 3.235c2.215 10.677.908 20.809-.946 31.446l-.424 2.518q-.687 4.046-1.387 8.089l-.976 5.71q-1.02 5.952-2.05 11.903c-.875 5.053-1.735 10.11-2.592 15.166a4194 4194 0 0 1-2.02 11.77q-.482 2.793-.954 5.589c-3.08 18.207-6.272 33.676-22.17 44.983-6.945 3.57-13.77 6.104-21.63 6.147l-2.727.022-2.954.008-3.14.02q-5.134.028-10.268.041l-3.544.013q-9.278.03-18.555.044c-6.392.011-12.785.046-19.177.085-4.914.026-9.828.035-14.742.038q-3.535.008-7.071.035c-3.294.025-6.587.024-9.881.017l-2.954.039c-4.288-.033-6.705-.115-10.44-2.37-2.365-2.638-2.844-4.428-3.429-7.909l-.604-3.424-.572-3.618-.627-3.672c-1.429-8.482-2.675-16.974-3.685-25.516h-22l-1.25 9.188c-.563 3.94-1.152 7.877-1.75 11.812l-.454 2.991a563 563 0 0 1-1.421 8.572l-.415 2.682-.452 2.509-.37 2.197c-1.373 3.169-2.938 4.226-5.888 6.049-3.393.593-6.746.547-10.184.518l-3.101.02c-3.384.018-6.768.007-10.153-.007l-7.082.012q-7.429.008-14.858-.022c-6.32-.022-12.64-.01-18.96.015-4.88.014-9.76.01-14.64 0q-3.492-.005-6.984.01c-18.27.057-32.712-.959-46.788-13.796-5.957-6.37-8.37-13.468-10.179-21.89l-.519-2.381c-1.914-8.933-3.475-17.923-5.005-26.928l-.925-5.388a7462 7462 0 0 1-1.905-11.17q-1.215-7.14-2.448-14.276-.953-5.537-1.894-11.075-.45-2.633-.905-5.266-.63-3.668-1.248-7.34l-.378-2.161c-1.453-8.737-.388-16.024 1.463-24.57l.744-3.517q1.01-4.753 2.034-9.503.857-3.983 1.707-7.968 2.011-9.416 4.042-18.828 2.08-9.66 4.134-19.33a6420 6420 0 0 1 3.567-16.668q1.069-4.959 2.121-9.922 1.182-5.552 2.39-11.097l.682-3.253c3.622-16.468 9.364-28.385 23.17-38.43 8.935-5.153 16.502-6.388 26.774-6.32M122.64 137.73c-4.828 6.68-6.635 14.51-8.298 22.45l-.711 3.274c-.767 3.544-1.52 7.09-2.273 10.636q-.797 3.707-1.597 7.413a6984 6984 0 0 0-3.318 15.49c-1.552 7.289-3.119 14.574-4.687 21.86-1.22 5.661-2.433 11.324-3.648 16.987l-.787 3.667q-1.094 5.108-2.182 10.22l-.661 3.08-.595 2.8-.52 2.439c-.425 1.95-.425 1.95-.364 3.954h46V129c-6.65 0-11.746 4.307-16.36 8.73M373 129v133h46c-4.004-20.359-8.244-40.664-12.583-60.954a4249 4249 0 0 1-3.197-15.067q-1.557-7.41-3.149-14.812-.596-2.787-1.176-5.577c-3.22-17.281-3.22-17.281-13.395-31.09l-2.219-1.906C379.885 130.22 377.161 129 373 129M93 279c.609 6.09 1.239 11.947 2.228 17.953l.36 2.202q.583 3.548 1.178 7.095l.413 2.475q1.081 6.477 2.176 12.95.898 5.323 1.769 10.65 1.06 6.478 2.162 12.95.413 2.448.808 4.898c2.599 16.708 2.599 16.708 12.88 29.545 6.441 4.076 13.323 4.716 20.768 4.623h2.812c3.036-.001 6.07-.024 9.106-.048q3.175-.009 6.351-.013a4223 4223 0 0 0 16.645-.074c5.672-.03 11.343-.044 17.014-.06q16.665-.05 33.33-.146l.595-3.5c.733-4.298 1.48-8.593 2.23-12.888q.486-2.785.958-5.572.684-4.012 1.393-8.02l.417-2.507c.784-4.376 1.59-7.934 4.407-11.513 3.95-1.317 7.747-1.182 11.867-1.203l2.642-.017q2.766-.014 5.533-.02c2.815-.01 5.63-.041 8.446-.072q2.69-.01 5.38-.016l2.544-.038c4.636.018 7.912.208 11.588 3.366.871 1.827.871 1.827 1.223 3.895l.443 2.404c.13.83.262 1.659.397 2.514l.408 2.29q.454 2.564.882 5.13c.87 5.063 1.793 10.115 2.715 15.168l.563 3.092L289 384q18.346.106 36.693.155c5.68.016 11.36.037 17.04.071 5.485.033 10.97.05 16.456.059q3.133.008 6.266.032c2.934.022 5.868.025 8.803.024l2.593.032c8.137-.041 15.583-1.82 21.603-7.56 7.292-8.55 8.344-19.659 10.097-30.333q.458-2.685.92-5.369.958-5.595 1.888-11.198c.794-4.781 1.606-9.56 2.424-14.337.783-4.573 1.557-9.147 2.33-13.72l.447-2.632q.623-3.69 1.234-7.38l.373-2.193c.6-3.653.833-6.917.833-10.651z"/><path d="m310.566 296.369 2.58-.022a618 618 0 0 1 8.416.024q2.931 0 5.862-.007 6.138-.003 12.276.04c5.243.033 10.484.027 15.727.008 4.034-.01 8.067-.001 12.101.014q2.9.008 5.799-.002c2.703-.005 5.404.015 8.107.043l2.415-.02c3.634.062 5.957.44 9.124 2.274 2.306 2.593 2.833 3.844 3.027 7.279-.201 2.58-.201 2.58-.665 5.354l-.517 3.165-.584 3.387-.588 3.508q-.619 3.667-1.251 7.333a1883 1883 0 0 0-1.883 11.218q-.606 3.564-1.215 7.129l-.56 3.387-.554 3.165-.474 2.774c-.806 2.934-1.974 5.088-3.709 7.58-2.921 1.46-5.51 1.152-8.773 1.177l-2.11.02q-3.46.028-6.922.041l-2.386.013q-6.251.03-12.502.044c-4.307.011-8.613.046-12.92.085-3.309.026-6.618.035-9.928.038q-2.382.008-4.763.035c-2.222.025-4.442.024-6.664.017l-3.831.018c-3.765-.574-4.913-1.51-7.201-4.488-.742-1.922-.742-1.922-1.09-3.965l-.43-2.382-.418-2.59-.475-2.728q-.52-3-1.022-6.004a889 889 0 0 0-1.928-10.85q-.695-3.865-1.387-7.731l-.676-3.71c-2.268-12.982-2.268-12.982-1.574-19.04 3.847-5.227 7.42-5.721 13.566-5.631m-179.416.486 2.553-.01q4.19-.013 8.383-.013l5.814-.01q6.1-.009 12.202-.007c5.214 0 10.428-.014 15.643-.031q6.006-.015 12.014-.013 2.884 0 5.767-.013c2.689-.01 5.377-.007 8.065 0 .796-.007 1.592-.012 2.412-.018 6.858.04 6.858.04 9.997 2.26 5.777 8.382-.676 27.037-2.274 36.339-.542 3.179-1.06 6.361-1.58 9.544q-.518 3.043-1.04 6.086l-.459 2.872-.474 2.673-.395 2.34c-1.073 2.959-2.242 4.27-4.778 6.146-3.225.515-3.225.515-7.092.533l-2.14.027c-2.33.022-4.657.015-6.987.006q-2.432.008-4.864.02-5.094.014-10.188-.01c-4.352-.017-8.702.007-13.054.042-3.347.022-6.694.02-10.042.012q-2.407 0-4.813.02c-2.244.018-4.485.004-6.728-.019l-3.867-.003C130 365 130 365 127.63 362.742c-1.526-2.568-2.298-4.338-2.803-7.25l-.474-2.612-.458-2.79-.514-2.92a903 903 0 0 1-1.046-6.114c-.517-3.086-1.056-6.168-1.599-9.25-4.714-27.086-4.714-27.086-1.923-31.994 3.98-3.297 7.366-2.96 12.337-2.957"/></svg>